<svg xmlns="http://www.w3.org/2000/svg" id="flag-icons-in" viewBox="0 0 640 480">
  <path fill="#f93" d="M0 0h640v160H0z"/>
  <path fill="#fff" d="M0 160h640v160H0z"/>
  <path fill="#128807" d="M0 320h640v160H0z"/>
  <g transform="translate(320 240)">
    <circle r="53.3" fill="#008"/>
    <circle r="43.3" fill="#fff"/>
    <circle r="7.1" fill="#008"/>
    <g id="s" fill="#008">
      <path d="M0-43.3 1.5-7.1-1.5-7.1z"/>
      <path d="M0-43.3 1.5-7.1-1.5-7.1z" transform="rotate(15)"/>
      <path d="M0-43.3 1.5-7.1-1.5-7.1z" transform="rotate(30)"/>
      <path d="M0-43.3 1.5-7.1-1.5-7.1z" transform="rotate(45)"/>
      <path d="M0-43.3 1.5-7.1-1.5-7.1z" transform="rotate(60)"/>
      <path d="M0-43.3 1.5-7.1-1.5-7.1z" transform="rotate(75)"/>
      <path d="M0-43.3 1.5-7.1-1.5-7.1z" transform="rotate(90)"/>
      <path d="M0-43.3 1.5-7.1-1.5-7.1z" transform="rotate(105)"/>
      <path d="M0-43.3 1.5-7.1-1.5-7.1z" transform="rotate(120)"/>
      <path d="M0-43.3 1.5-7.1-1.5-7.1z" transform="rotate(135)"/>
      <path d="M0-43.3 1.5-7.1-1.5-7.1z" transform="rotate(150)"/>
      <path d="M0-43.3 1.5-7.1-1.5-7.1z" transform="rotate(165)"/>
      <path d="M0-43.3 1.5-7.1-1.5-7.1z" transform="rotate(180)"/>
      <path d="M0-43.3 1.5-7.1-1.5-7.1z" transform="rotate(195)"/>
      <path d="M0-43.3 1.5-7.1-1.5-7.1z" transform="rotate(210)"/>
      <path d="M0-43.3 1.5-7.1-1.5-7.1z" transform="rotate(225)"/>
      <path d="M0-43.3 1.5-7.1-1.5-7.1z" transform="rotate(240)"/>
      <path d="M0-43.3 1.5-7.1-1.5-7.1z" transform="rotate(255)"/>
      <path d="M0-43.3 1.5-7.1-1.5-7.1z" transform="rotate(270)"/>
      <path d="M0-43.3 1.5-7.1-1.5-7.1z" transform="rotate(285)"/>
      <path d="M0-43.3 1.5-7.1-1.5-7.1z" transform="rotate(300)"/>
      <path d="M0-43.3 1.5-7.1-1.5-7.1z" transform="rotate(315)"/>
      <path d="M0-43.3 1.5-7.1-1.5-7.1z" transform="rotate(330)"/>
      <path d="M0-43.3 1.5-7.1-1.5-7.1z" transform="rotate(345)"/>
    </g>
  </g>
</svg>
